#!OML:ASF G:\JayActor3\Patient Classification 1\Patient 1\Session 5\male.ASF
:FULLY-SPECIFIED
:DEGREES
764
root -37.5497 16.549 -6.72601 709.19 -88.2104 -689.551
lowerback 27.2717 0.137762 1.75768
upperback 6.29044 0.0939957 -0.560482
thorax -8.06117 -0.195537 -1.63704
lowerneck 2.85317 -1.74398 1.45087
upperneck -6.03283 -2.22615 1.0773
head -2.39154 -1.18755 0.159859
rclavicle 1.32192e-014 7.25564e-015
rhumerus -31.9623 -2.35004 -87.8932
rradius 29.6756
rwrist -0.533979
rhand -22.8381 -7.64053
rfingers 7.12502
rthumb 3.59944 -37.5899
lclavicle 1.32192e-014 7.25564e-015
lhumerus -31.0663 -2.2692 87.604
lradius 32.8201
lwrist 26.2631
lhand -19.5659 9.11255
lfingers 7.12502
lthumb 6.75892 38.9847
rfemur -38.5932 -2.98045 21.8304
rtibia 78.2859
rfoot -10.6783 -2.35836
rtoes -1.06396
lfemur -47.9305 1.47491 -28.7308
ltibia 35.433
lfoot -4.64991 0.656738
ltoes 13.0968
765
root -37.6882 16.5703 -6.7131 709.779 -88.3278 -690.066
lowerback 27.2687 0.164622 1.8209
upperback 6.31354 0.144648 -0.539946
thorax -8.03118 -0.173136 -1.66728
lowerneck 2.86456 -1.74921 1.4791
upperneck -6.03313 -2.23171 1.07216
head -2.39417 -1.19082 0.153723
rclavicle -5.56597e-015 -1.90833e-014
rhumerus -31.8885 -2.30657 -87.888
rradius 29.692
rwrist -0.508235
rhand -22.8242 -7.64161
rfingers 7.12502
rthumb 3.61283 -37.5907
lclavicle -5.56597e-015 -1.90833e-014
lhumerus -31.1007 -2.37264 87.663
lradius 32.7268
lwrist 26.2234
lhand -19.3659 9.4104
lfingers 7.12502
lthumb 6.95191 39.2762
rfemur -39.622 -2.84195 21.7263
rtibia 79.075
rfoot -11.1537 -2.51537
rtoes -0.214104
lfemur -47.5808 1.42702 -28.6121
ltibia 35.6589
lfoot -4.9236 0.804453
ltoes 12.8731
766
root -37.8267 16.5908 -6.69972 710.721 -88.4838 -690.912
lowerback 27.2257 0.190089 1.89092
upperback 6.33749 0.194872 -0.520871
thorax -7.98017 -0.150608 -1.70265
lowerneck 2.83695 -1.73441 1.48521
upperneck -6.0159 -2.21267 1.0663
head -2.3835 -1.18109 0.149828
rclavicle 1.59028e-014 2.32578e-014
rhumerus -31.7908 -2.23041 -87.8961
rradius 29.6811
rwrist -0.360433
rhand -22.721 -7.60043
rfingers 7.12502
rthumb 3.71249 -37.5478
lclavicle 1.59028e-014 2.32578e-014
lhumerus -31.1395 -2.43118 87.6985
lradius 32.6301
lwrist 26.2057
lhand -19.1896 9.68705
lfingers 7.12502
lthumb 7.12209 39.5472
rfemur -40.7058 -2.64776 21.6342
rtibia 79.777
rfoot -11.6321 -2.71043
rtoes 0.0673502
lfemur -47.2667 1.4171 -28.4816
ltibia 35.9033
lfoot -5.3015 0.950192
ltoes 12.4171
767
root -37.9646 16.6102 -6.68563 712.647 -88.6461 -692.74
lowerback 27.176 0.198612 1.99841
upperback 6.35719 0.233354 -0.507001
thorax -7.93057 -0.134071 -1.76145
lowerneck 2.79237 -1.71116 1.48484
upperneck -5.99199 -2.18334 1.0565
head -2.36745 -1.16589 0.145265
rclavicle -6.65929e-015 -2.23633e-014
rhumerus -31.6905 -2.14399 -87.9186
rradius 29.6502
rwrist -0.135608
rhand -22.5644 -7.53535
rfingers 7.12502
rthumb 3.8638 -37.4801
lclavicle -6.65929e-015 -2.23633e-014
lhumerus -31.196 -2.45909 87.7089
lradius 32.5279
lwrist 26.1939
lhand -19.03 9.91732
lfingers 7.12502
lthumb 7.27617 39.7722
rfemur -41.8079 -2.4405 21.555
rtibia 80.3879
rfoot -12.114 -2.92478
rtoes -0.0656269
lfemur -46.9646 1.4431 -28.3495
ltibia 36.1594
lfoot -5.73736 1.07295
ltoes 11.91
768
root -38.1017 16.6281 -6.67194 714.684 -88.7957 -694.682
lowerback 27.1348 0.194095 2.10421
upperback 6.36743 0.25475 -0.501396
thorax -7.89648 -0.125539 -1.82289
lowerneck 2.77303 -1.68446 1.48722
upperneck -5.97908 -2.14847 1.04821
head -2.35968 -1.14816 0.140912
rclavicle -1.46107e-014 -1.37161e-014
rhumerus -31.6051 -2.05206 -87.9551
rradius 29.6117
rwrist 0.10131
rhand -22.3826 -7.46739
rfingers 7.12502
rthumb 4.03927 -37.4088
lclavicle -1.46107e-014 -1.37161e-014
lhumerus -31.2771 -2.46157 87.6957
lradius 32.4212
lwrist 26.171
lhand -18.8851 10.0927
lfingers 7.12502
lthumb 7.41602 39.9427
rfemur -42.9268 -2.21856 21.4595
rtibia 80.9095
rfoot -12.628 -3.11017
rtoes -0.2814
lfemur -46.6663 1.50555 -28.2497
ltibia 36.4149
lfoot -6.17796 1.16458
ltoes 11.5022
